<?xml version="1.0" encoding="UTF-8"?>
<svg version="1.1" xmlns="http://www.w3.org/2000/svg" width="512" height="512">
<path d="M0 0 C4.07630812 2.72335789 5.94177602 5.48667387 7.76171875 10.09375 C8.23447756 14.15044602 8.25032613 18.19239565 8.2734375 22.2734375 C8.2913887 23.4413382 8.3093399 24.60923889 8.32783508 25.81253052 C8.38188103 29.53123397 8.41581653 33.24980946 8.44921875 36.96875 C8.48239675 39.49480945 8.51688685 42.02085203 8.55273438 44.546875 C8.63760444 50.72905192 8.7059787 56.91124551 8.76171875 63.09375 C9.87579102 63.2805835 10.98986328 63.46741699 12.13769531 63.65991211 C27.96285499 66.35391324 27.96285499 66.35391324 35.51171875 68.65625 C36.32898438 68.90455566 37.14625 69.15286133 37.98828125 69.40869141 C52.5020857 74.0490282 66.57065489 80.92711546 78.76171875 90.09375 C79.59316406 90.71636719 80.42460937 91.33898437 81.28125 91.98046875 C106.81215409 111.8020998 125.70779779 137.20270401 135.19921875 168.34375 C135.4219043 169.07360107 135.64458984 169.80345215 135.87402344 170.55541992 C139.8305632 184.54809773 141.20219358 198.31949905 141.203125 212.7890625 C141.21495772 214.43603651 141.22833571 216.08300005 141.2431488 217.72994995 C141.27891764 222.02485363 141.29939494 226.31966461 141.31469727 230.61468506 C141.49595989 280.18885011 143.12486081 325.53482278 176.76171875 365.09375 C177.95861328 366.50333984 177.95861328 366.50333984 179.1796875 367.94140625 C183.16218838 372.48598127 187.31658413 376.54115533 191.9140625 380.453125 C199.29119842 387.00364738 204.3615596 394.84208321 205 404.81640625 C205.29407263 416.29451138 204.10461597 426.02292898 196.5859375 435.24609375 C188.54123328 443.39415605 179.34997558 447.37132024 167.97850037 447.5304718 C166.55429527 447.52831917 166.55429527 447.52831917 165.10131836 447.52612305 C164.07587921 447.5363147 163.05044006 447.54650635 161.993927 447.55700684 C158.63391553 447.58699079 155.27418984 447.59638056 151.9140625 447.60546875 C149.57279015 447.62232623 147.2315268 447.6404779 144.89027405 447.65986633 C138.75012014 447.70725612 132.6100027 447.73713688 126.46972656 447.76330566 C120.19523926 447.79316676 113.92087747 447.83967804 107.64648438 447.88476562 C95.3516283 447.97067341 83.05674631 448.03807444 70.76171875 448.09375 C70.37137451 449.31336426 69.98103027 450.53297852 69.57885742 451.78955078 C69.05030921 453.41449923 68.52140001 455.03933028 67.9921875 456.6640625 C67.73691284 457.46497314 67.48163818 458.26588379 67.21862793 459.09106445 C60.92340496 478.30496678 45.91327111 494.17460031 28.07421875 503.34375 C8.98984733 512.56960177 -13.24396098 514.57387321 -33.7109375 508.41015625 C-54.31950267 500.7190306 -71.30842884 487.02164716 -81.23828125 467.09375 C-87.23828125 453.6639762 -87.23828125 453.6639762 -87.23828125 447.09375 C-88.54405121 447.10263245 -89.84982117 447.11151489 -91.19515991 447.1206665 C-103.52412603 447.20188984 -115.85303757 447.26178152 -128.18221092 447.30099869 C-134.52018799 447.32183869 -140.85794839 447.35009131 -147.19580078 447.39550781 C-153.31662744 447.43909271 -159.43724618 447.46291407 -165.55821609 447.47325897 C-167.88891496 447.4806276 -170.21960294 447.49501669 -172.55021286 447.51667023 C-175.82457476 447.54587152 -179.09808662 447.54969892 -182.37255859 447.54785156 C-183.32778412 447.56223267 -184.28300964 447.57661377 -185.2671814 447.59143066 C-196.35492464 447.52411117 -205.02935374 443.07271724 -212.92578125 435.46875 C-220.68409197 427.08977442 -222.57169495 417.79398967 -222.4453125 406.6953125 C-221.6169703 392.28528406 -213.09901925 383.65260952 -202.93408203 374.40722656 C-177.16021189 350.821042 -161.50570522 315.82966668 -159.23828125 281.09375 C-159.09897118 275.81103993 -159.06066087 270.53027218 -159.03905106 265.24592781 C-159.02709117 262.57244564 -159.0075952 259.89911303 -158.9859314 257.22569275 C-158.92490445 249.63025054 -158.87056327 242.03482609 -158.83691406 234.43920898 C-158.81569702 229.77203862 -158.78018665 225.10514732 -158.73615646 220.43813896 C-158.7222091 218.68153656 -158.71332347 216.92488487 -158.71010208 215.16823006 C-158.67834314 199.5002843 -157.28594821 183.90989304 -152.48828125 168.90625 C-152.23151611 168.08294189 -151.97475098 167.25963379 -151.71020508 166.41137695 C-145.37922459 146.69108677 -135.43638767 129.96707752 -122.23828125 114.09375 C-121.58730469 113.2996875 -120.93632812 112.505625 -120.265625 111.6875 C-116.30570683 106.99693633 -111.94464407 103.02130189 -107.23828125 99.09375 C-106.08972656 98.07861328 -106.08972656 98.07861328 -104.91796875 97.04296875 C-82.20304102 77.48868081 -55.33626139 68.01987591 -26.23828125 63.09375 C-26.23241501 62.45561371 -26.22654877 61.81747742 -26.22050476 61.16000366 C-26.15649097 54.50856016 -26.07205024 47.85759691 -25.97583008 41.20654297 C-25.94260889 38.72548765 -25.91456827 36.24435727 -25.8918457 33.76318359 C-25.85824905 30.19335999 -25.80592842 26.62422255 -25.75 23.0546875 C-25.74361008 21.94821869 -25.73722015 20.84174988 -25.7306366 19.70175171 C-25.5919748 12.41197213 -24.70985502 7.87427049 -19.73828125 2.28125 C-14.66400199 -2.15874435 -6.18970521 -2.50612846 0 0 Z " fill="#FEC006" transform="translate(264.23828125,0.90625)"/>
<path d="M0 0 C4.07630812 2.72335789 5.94177602 5.48667387 7.76171875 10.09375 C8.23447756 14.15044602 8.25032613 18.19239565 8.2734375 22.2734375 C8.2913887 23.4413382 8.3093399 24.60923889 8.32783508 25.81253052 C8.38188103 29.53123397 8.41581653 33.24980946 8.44921875 36.96875 C8.48239675 39.49480945 8.51688685 42.02085203 8.55273438 44.546875 C8.63760444 50.72905192 8.7059787 56.91124551 8.76171875 63.09375 C9.87579102 63.2805835 10.98986328 63.46741699 12.13769531 63.65991211 C27.96285499 66.35391324 27.96285499 66.35391324 35.51171875 68.65625 C36.32898438 68.90455566 37.14625 69.15286133 37.98828125 69.40869141 C52.5020857 74.0490282 66.57065489 80.92711546 78.76171875 90.09375 C79.59316406 90.71636719 80.42460937 91.33898437 81.28125 91.98046875 C106.81215409 111.8020998 125.70779779 137.20270401 135.19921875 168.34375 C135.4219043 169.07360107 135.64458984 169.80345215 135.87402344 170.55541992 C139.8305632 184.54809773 141.20219358 198.31949905 141.203125 212.7890625 C141.21495772 214.43603651 141.22833571 216.08300005 141.2431488 217.72994995 C141.27891764 222.02485363 141.29939494 226.31966461 141.31469727 230.61468506 C141.49595989 280.18885011 143.12486081 325.53482278 176.76171875 365.09375 C177.95861328 366.50333984 177.95861328 366.50333984 179.1796875 367.94140625 C183.16218838 372.48598127 187.31658413 376.54115533 191.9140625 380.453125 C199.29119842 387.00364738 204.3615596 394.84208321 205 404.81640625 C205.29407263 416.29451138 204.10461597 426.02292898 196.5859375 435.24609375 C188.54123328 443.39415605 179.34997558 447.37132024 167.97850037 447.5304718 C166.55429527 447.52831917 166.55429527 447.52831917 165.10131836 447.52612305 C164.07587921 447.5363147 163.05044006 447.54650635 161.993927 447.55700684 C158.63391553 447.58699079 155.27418984 447.59638056 151.9140625 447.60546875 C149.57279015 447.62232623 147.2315268 447.6404779 144.89027405 447.65986633 C138.75012014 447.70725612 132.6100027 447.73713688 126.46972656 447.76330566 C120.19523926 447.79316676 113.92087747 447.83967804 107.64648438 447.88476562 C95.3516283 447.97067341 83.05674631 448.03807444 70.76171875 448.09375 C70.37137451 449.31336426 69.98103027 450.53297852 69.57885742 451.78955078 C69.05030921 453.41449923 68.52140001 455.03933028 67.9921875 456.6640625 C67.73691284 457.46497314 67.48163818 458.26588379 67.21862793 459.09106445 C60.92340496 478.30496678 45.91327111 494.17460031 28.07421875 503.34375 C8.98984733 512.56960177 -13.24396098 514.57387321 -33.7109375 508.41015625 C-54.31950267 500.7190306 -71.30842884 487.02164716 -81.23828125 467.09375 C-87.23828125 453.6639762 -87.23828125 453.6639762 -87.23828125 447.09375 C-88.54405121 447.10263245 -89.84982117 447.11151489 -91.19515991 447.1206665 C-103.52412603 447.20188984 -115.85303757 447.26178152 -128.18221092 447.30099869 C-134.52018799 447.32183869 -140.85794839 447.35009131 -147.19580078 447.39550781 C-153.31662744 447.43909271 -159.43724618 447.46291407 -165.55821609 447.47325897 C-167.88891496 447.4806276 -170.21960294 447.49501669 -172.55021286 447.51667023 C-175.82457476 447.54587152 -179.09808662 447.54969892 -182.37255859 447.54785156 C-183.32778412 447.56223267 -184.28300964 447.57661377 -185.2671814 447.59143066 C-196.35492464 447.52411117 -205.02935374 443.07271724 -212.92578125 435.46875 C-220.68409197 427.08977442 -222.57169495 417.79398967 -222.4453125 406.6953125 C-221.6169703 392.28528406 -213.09901925 383.65260952 -202.93408203 374.40722656 C-177.16021189 350.821042 -161.50570522 315.82966668 -159.23828125 281.09375 C-159.09897118 275.81103993 -159.06066087 270.53027218 -159.03905106 265.24592781 C-159.02709117 262.57244564 -159.0075952 259.89911303 -158.9859314 257.22569275 C-158.92490445 249.63025054 -158.87056327 242.03482609 -158.83691406 234.43920898 C-158.81569702 229.77203862 -158.78018665 225.10514732 -158.73615646 220.43813896 C-158.7222091 218.68153656 -158.71332347 216.92488487 -158.71010208 215.16823006 C-158.67834314 199.5002843 -157.28594821 183.90989304 -152.48828125 168.90625 C-152.23151611 168.08294189 -151.97475098 167.25963379 -151.71020508 166.41137695 C-145.37922459 146.69108677 -135.43638767 129.96707752 -122.23828125 114.09375 C-121.58730469 113.2996875 -120.93632812 112.505625 -120.265625 111.6875 C-116.30570683 106.99693633 -111.94464407 103.02130189 -107.23828125 99.09375 C-106.08972656 98.07861328 -106.08972656 98.07861328 -104.91796875 97.04296875 C-82.20304102 77.48868081 -55.33626139 68.01987591 -26.23828125 63.09375 C-26.23241501 62.45561371 -26.22654877 61.81747742 -26.22050476 61.16000366 C-26.15649097 54.50856016 -26.07205024 47.85759691 -25.97583008 41.20654297 C-25.94260889 38.72548765 -25.91456827 36.24435727 -25.8918457 33.76318359 C-25.85824905 30.19335999 -25.80592842 26.62422255 -25.75 23.0546875 C-25.74361008 21.94821869 -25.73722015 20.84174988 -25.7306366 19.70175171 C-25.5919748 12.41197213 -24.70985502 7.87427049 -19.73828125 2.28125 C-14.66400199 -2.15874435 -6.18970521 -2.50612846 0 0 Z M-100.73974609 138.87646484 C-119.56877398 162.37790572 -126.86853988 191.15708229 -126.77734375 220.7890625 C-126.78729813 222.60066896 -126.79925684 224.41226536 -126.81307983 226.22384644 C-126.84502028 230.93496085 -126.85579433 235.6458437 -126.85992432 240.35705566 C-126.86877102 247.89863085 -126.9048879 255.44001991 -126.95209885 262.9814415 C-126.96441808 265.57446589 -126.96395045 268.16723759 -126.96182251 270.76028442 C-127.03393551 301.13767926 -133.71709818 329.31369087 -148.23828125 356.09375 C-148.5537793 356.69380859 -148.86927734 357.29386719 -149.19433594 357.91210938 C-158.93008297 376.41507316 -173.25142154 392.09909519 -188.5390625 406.21875 C-190.55246378 407.99704166 -190.55246378 407.99704166 -190.11328125 410.71875 C-189.37360212 413.23780125 -189.37360212 413.23780125 -187.23828125 415.09375 C-184.58482851 415.3993087 -184.58482851 415.3993087 -181.42516422 415.34822559 C-180.17946 415.35405779 -178.93375578 415.35988998 -177.65030295 415.36589891 C-176.25515448 415.36226515 -174.86000649 415.35844074 -173.46485901 415.35444641 C-171.99271527 415.35746425 -170.52057309 415.36135187 -169.04843372 415.36603898 C-164.98835563 415.37637518 -160.92836529 415.37412296 -156.86827981 415.36985838 C-152.4953371 415.3674013 -148.12241608 415.3763926 -143.7494812 415.38389587 C-135.17679881 415.39667333 -126.60414769 415.39843278 -118.03145737 415.39609561 C-111.06642332 415.39431569 -104.1013988 415.39605506 -97.13636589 415.40032005 C-96.14669908 415.40091524 -95.15703226 415.40151043 -94.13737554 415.40212366 C-92.1271468 415.40333535 -90.11691806 415.40454949 -88.10668933 415.40576603 C-69.2364047 415.4166533 -50.36613792 415.41447346 -31.49585228 415.40838119 C-14.21619168 415.40321089 3.06341258 415.41446833 20.34306204 415.43347941 C38.06738969 415.45283088 55.79169065 415.46111855 73.51602894 415.45735615 C83.47427636 415.45544002 93.43247581 415.45797162 103.39071465 415.47207069 C111.86812076 415.48395125 120.34544937 415.48542693 128.82285648 415.47328053 C133.15128698 415.46736836 137.47957549 415.46635647 141.80799675 415.47828293 C145.76622002 415.48906294 149.7241814 415.48613342 153.68239201 415.47202124 C155.11844593 415.46935239 156.55451986 415.47180869 157.99055427 415.47975711 C159.93460086 415.489775 161.87872057 415.47970311 163.82276058 415.46848011 C164.90501854 415.46853513 165.9872765 415.46859014 167.10233015 415.46864682 C169.78158329 415.30695216 169.78158329 415.30695216 171.60789448 413.72422951 C173.27507087 411.36832747 173.20647543 409.91425086 172.76171875 407.09375 C171.37079929 405.13907708 171.37079929 405.13907708 169.359375 403.4921875 C168.6382251 402.8429834 167.9170752 402.1937793 167.17407227 401.52490234 C166.01089478 400.50710693 166.01089478 400.50710693 164.82421875 399.46875 C158.11344814 393.3735767 152.16160171 387.40069335 146.76171875 380.09375 C146.36968262 379.5766748 145.97764648 379.05959961 145.57373047 378.52685547 C124.32548526 350.45798149 109.65229967 314.93407632 109.60400391 279.37719727 C109.59892319 278.54502182 109.59384247 277.71284637 109.58860779 276.85545349 C109.57796815 275.06040534 109.56932328 273.26534446 109.56248856 271.47027779 C109.55058346 268.6126811 109.53109908 265.75522781 109.5093689 262.89768982 C109.44816366 254.77665103 109.39395117 246.65562767 109.36035156 238.53442383 C109.33919284 233.55186734 109.30372264 228.56957515 109.25959396 223.58717155 C109.24559837 221.70610641 109.23674949 219.82499455 109.23353958 217.94388008 C109.17681157 187.86608119 101.4070994 160.47141368 81.76171875 137.09375 C81.00503906 136.17464844 80.24835938 135.25554687 79.46875 134.30859375 C59.91870917 111.63309777 30.84852702 97.48975077 1.10253906 95.24755859 C-38.74001103 92.62961882 -74.96920543 108.27866193 -100.73974609 138.87646484 Z " fill="#020100" transform="translate(264.23828125,0.90625)"/>
<path d="M0 0 C2.32597695 2.02379875 4.47673622 4.12609151 6.59765625 6.36328125 C7.14550781 6.93820313 7.69335938 7.513125 8.2578125 8.10546875 C10.10084947 10.14322461 11.84678966 12.24556642 13.59765625 14.36328125 C14.54162552 15.47138922 15.48564 16.57945867 16.4296875 17.6875 C52.98605867 61.09854396 75.42436857 116.47428016 77.59765625 173.36328125 C77.63020508 174.05969727 77.66275391 174.75611328 77.69628906 175.47363281 C78.40534574 191.91085588 78.40534574 191.91085588 73.59765625 198.36328125 C68.35949774 202.53242782 64.27440203 203.91055549 57.59765625 203.36328125 C52.32526278 201.55335513 48.65244868 199.12875743 45.59765625 194.36328125 C44.56712142 191.27167676 44.36881427 188.85136939 44.203125 185.60546875 C41.53197952 138.2358509 29.91988457 93.21659165 1.59765625 54.36328125 C1.19337402 53.80495605 0.7890918 53.24663086 0.37255859 52.67138672 C-4.53542232 45.95039026 -9.80334863 39.69743923 -15.4855957 33.62060547 C-27.85927413 20.35054157 -27.85927413 20.35054157 -27.75 10.78125 C-26.99288863 5.51549792 -24.02858456 1.62361788 -19.90234375 -1.57421875 C-13.11925809 -4.45703015 -6.18333999 -4.21271456 0 0 Z " fill="#000000" transform="translate(413.40234375,26.63671875)"/>
<path d="M0 0 C3.73591097 2.9503649 5.81314531 5.72642059 6.43359375 10.4375 C6.53901034 17.89045265 5.32875079 22.51345605 0.14453125 27.92578125 C-1.39027669 29.4444898 -2.93375383 30.95447175 -4.484375 32.45703125 C-8.65330022 36.64616128 -12.27819768 41.2253993 -15.90234375 45.88671875 C-16.32773438 46.43038086 -16.753125 46.97404297 -17.19140625 47.53417969 C-25.12461787 57.74644991 -31.71269762 68.54430783 -37.90234375 79.88671875 C-38.26956543 80.55251953 -38.63678711 81.21832031 -39.01513672 81.90429688 C-55.28852907 111.71464453 -63.74142607 145.91214245 -64.5246582 179.78613281 C-64.74869417 187.77542947 -65.60547677 194.46008533 -71.265625 200.4765625 C-74.6925274 203.42909655 -78.01927948 203.80787373 -82.40234375 204.19921875 C-87.82340806 203.71519515 -91.21666479 201.92380383 -94.71484375 197.82421875 C-102.80586225 186.95913677 -98.16719044 162.11475949 -96.31469727 149.1484375 C-94.71302048 138.94077636 -92.49699203 128.88483769 -89.90234375 118.88671875 C-89.68739258 118.0560791 -89.47244141 117.22543945 -89.25097656 116.36962891 C-78.15002053 74.51288511 -55.61393793 37.09028681 -25.90234375 5.88671875 C-25.22042969 5.12875 -24.53851563 4.37078125 -23.8359375 3.58984375 C-17.2265324 -3.56664857 -8.62818857 -5.0493506 0 0 Z " fill="#000000" transform="translate(118.90234375,26.11328125)"/>
<path d="M0 0 C29.7 0 59.4 0 90 0 C82.7235336 14.5529328 75.83352874 24.32165934 60.25 29.8125 C48.20522913 33.60522365 35.48418901 33.29412969 24 28 C20.81582579 26.20920865 17.90347311 24.21244651 15 22 C13.96875 21.2575 12.9375 20.515 11.875 19.75 C7.00511332 15.09184752 2.64837234 9.24444654 0 3 C0 2.01 0 1.02 0 0 Z " fill="#FD9E00" transform="translate(211,448)"/>
<path d="M0 0 C0 3 0 3 -2.625 5.91796875 C-3.74249406 7.01550756 -4.86785643 8.10507895 -6 9.1875 C-6.57234375 9.74630859 -7.1446875 10.30511719 -7.734375 10.88085938 C-9.14962788 12.26073093 -10.57397155 13.63126734 -12 15 C-12 10.09687565 -8.29800369 7.38658643 -5 4 C-3.37458956 2.61667196 -1.72614587 1.25537882 0 0 Z " fill="#362801" transform="translate(61,376)"/>
</svg>
